<svg xmlns="http://www.w3.org/2000/svg" version="1.0" width="64.000000pt" height="64.000000pt" viewBox="0 0 64.000000 64.000000" preserveAspectRatio="xMidYMid meet">

<g transform="translate(0.000000,64.000000) scale(0.100000,-0.100000)" fill="#ffb566" stroke="none">
<path d="M300 510 c-57 -32 -109 -68 -114 -79 -8 -19 -18 -21 -83 -21 -42 0 -73 -4 -73 -10 0 -6 32 -10 75 -10 73 0 75 -1 75 -25 0 -22 -4 -25 -40 -25 -22 0 -40 -4 -40 -10 0 -5 18 -10 40 -10 39 0 40 -1 40 -35 l0 -35 -55 0 c-30 0 -55 -4 -55 -10 0 -5 24 -10 54 -10 45 0 56 -3 61 -19 4 -12 51 -44 117 -80 l111 -61 114 62 113 62 0 38 c0 21 -4 38 -9 38 -10 0 -21 -24 -21 -48 0 -11 -32 -34 -90 -65 l-90 -48 0 104 c0 102 1 104 25 115 35 16 35 16 35 -18 0 -35 1 -35 40 -15 26 13 30 21 30 55 0 29 5 42 19 50 27 14 29 13 33 -17 2 -14 9 -28 16 -31 8 -2 12 11 12 46 l0 49 -114 61 c-62 34 -115 62 -117 61 -2 0 -51 -27 -109 -59z m210 -22 l93 -52 -30 -14 c-30 -14 -34 -13 -109 28 -108 59 -110 61 -82 76 13 8 26 13 29 14 3 0 48 -23 99 -52z m-84 -44 c46 -25 82 -50 78 -55 -5 -8 -73 26 -169 83 -22 13 -25 18 -12 18 11 0 57 -21 103 -46z m-48 -25 c92 -50 94 -52 71 -65 -36 -20 -41 -18 -134 34 -85 47 -85 47 -64 65 12 9 24 17 26 17 3 0 48 -23 101 -51z m-68 -56 l90 -48 0 -102 c0 -57 -2 -103 -5 -103 -3 0 -46 23 -95 51 l-90 50 0 100 c0 54 2 99 6 99 3 0 45 -21 94 -47z m220 -18 c0 -14 -4 -25 -10 -25 -11 0 -14 33 -3 43 11 11 13 8 13 -18z" fill="#ffb566"/>
<path d="M50 330 c0 -5 5 -10 10 -10 6 0 10 5 10 10 0 6 -4 10 -10 10 -5 0 -10 -4 -10 -10z" fill="#ffb566"/>
<path d="M620 310 c0 -5 5 -10 10 -10 6 0 10 5 10 10 0 6 -4 10 -10 10 -5 0 -10 -4 -10 -10z" fill="#ffb566"/>
<path d="M0 240 c0 -5 9 -10 20 -10 11 0 20 5 20 10 0 6 -9 10 -20 10 -11 0 -20 -4 -20 -10z" fill="#ffb566"/>
</g>
</svg>