<svg xmlns="http://www.w3.org/2000/svg" version="1.0" width="64.000000pt" height="64.000000pt" viewBox="0 0 64.000000 64.000000" preserveAspectRatio="xMidYMid meet">

<g transform="translate(0.000000,64.000000) scale(0.100000,-0.100000)" fill="#ffb566" stroke="none">
<path d="M270 585 c0 -21 -5 -35 -12 -35 -7 0 -25 -6 -40 -14 -24 -13 -28 -12 -44 5 -23 25 -33 24 -66 -8 -33 -32 -35 -44 -9 -67 17 -16 18 -20 5 -44 -8 -15 -14 -33 -14 -39 0 -8 -14 -13 -35 -13 l-35 0 0 -50 0 -50 35 0 c21 0 35 -5 35 -12 0 -7 6 -25 14 -40 13 -24 12 -28 -5 -44 -26 -23 -24 -35 9 -67 33 -32 43 -33 66 -8 16 17 20 18 44 5 15 -8 33 -14 40 -14 7 0 12 -14 12 -35 l0 -35 50 0 50 0 0 34 c0 30 4 35 30 41 16 4 32 11 36 16 3 6 30 -13 59 -40 59 -56 75 -61 105 -31 30 30 25 46 -31 105 -27 29 -46 56 -40 59 5 4 12 20 16 36 6 26 11 30 41 30 l34 0 0 50 0 50 -35 0 c-21 0 -35 5 -35 13 0 6 -6 24 -14 39 -13 24 -12 28 5 44 25 23 24 33 -8 66 -32 33 -44 35 -67 9 -16 -17 -20 -18 -44 -5 -15 8 -33 14 -39 14 -8 0 -13 14 -13 35 l0 35 -50 0 -50 0 0 -35z m80 -13 c0 -24 7 -31 52 -50 52 -22 52 -22 72 -2 20 20 20 20 43 -2 l23 -22 -20 -21 c-20 -21 -20 -25 -6 -56 8 -19 17 -42 20 -51 4 -12 16 -18 36 -18 27 0 30 -3 30 -30 0 -26 -4 -30 -28 -30 -25 0 -31 -6 -46 -42 -14 -37 -18 -40 -30 -28 -12 12 -13 23 -4 55 22 82 -15 164 -92 203 -52 26 -96 28 -147 7 -50 -21 -72 -42 -94 -90 -25 -54 -24 -102 4 -155 38 -77 120 -114 202 -92 32 9 43 8 55 -4 12 -12 9 -16 -28 -30 -36 -15 -42 -21 -42 -46 0 -24 -4 -28 -30 -28 -27 0 -30 3 -30 30 0 20 -6 32 -17 36 -10 3 -33 12 -52 20 -32 14 -36 14 -55 -5 l-20 -21 -23 22 -23 22 20 21 c20 21 20 25 6 56 -8 19 -17 42 -20 52 -4 11 -16 17 -36 17 -27 0 -30 3 -30 30 0 26 4 30 28 30 24 0 31 7 50 52 l22 52 -20 21 -20 21 23 22 23 22 20 -21 c19 -19 23 -19 55 -5 19 8 42 17 52 20 11 4 17 16 17 36 0 27 3 30 30 30 26 0 30 -4 30 -28z m33 -106 c69 -28 107 -104 92 -182 l-6 -37 -35 34 c-23 22 -34 42 -34 61 0 58 -60 106 -116 92 -31 -8 -30 -25 1 -54 14 -13 25 -29 25 -37 0 -21 -25 -15 -50 12 -29 31 -46 32 -54 1 -14 -56 34 -116 92 -116 19 0 39 -11 61 -34 l34 -35 -37 -6 c-59 -11 -106 3 -147 44 -124 123 13 325 174 257z m-52 -56 c20 0 49 -42 49 -71 0 -26 18 -49 110 -144 61 -62 110 -117 110 -122 0 -12 -21 -33 -33 -33 -5 0 -60 50 -122 110 -87 85 -119 110 -139 110 -39 0 -61 15 -76 50 -16 40 -6 49 23 22 13 -12 35 -22 50 -22 23 0 27 4 27 28 0 16 -9 37 -20 47 -24 22 -26 40 -4 31 9 -3 20 -6 25 -6z" fill="#ffb566"/>
<path d="M370 260 c0 -5 5 -10 10 -10 6 0 10 5 10 10 0 6 -4 10 -10 10 -5 0 -10 -4 -10 -10z" fill="#ffb566"/>
<path d="M407 233 c-8 -12 120 -139 130 -130 4 4 -23 37 -59 73 -36 37 -68 62 -71 57z" fill="#ffb566"/>
<path d="M552 81 c4 -13 18 -16 19 -4 0 4 -5 9 -11 12 -7 2 -11 -2 -8 -8z" fill="#ffb566"/>
</g>
</svg>