<svg xmlns="http://www.w3.org/2000/svg" version="1.0" width="64.000000pt" height="64.000000pt" viewBox="0 0 64.000000 64.000000" preserveAspectRatio="xMidYMid meet">

<g transform="translate(0.000000,64.000000) scale(0.100000,-0.100000)" fill="#ffb566" stroke="none">
<path d="M207 633 c-4 -3 -7 -25 -7 -47 0 -33 -4 -43 -22 -51 -16 -7 -25 -21 -28 -45 -3 -19 -16 -57 -29 -84 -30 -62 -26 -150 7 -196 12 -16 22 -40 22 -54 0 -34 10 -56 26 -56 7 0 18 -8 23 -17 9 -15 10 -12 11 15 0 31 2 32 28 25 36 -10 101 -10 130 0 22 8 23 7 20 -45 l-3 -53 -80 -3 c-66 -2 -82 0 -92 14 -12 17 -13 16 -13 -3 0 -28 17 -33 109 -33 88 0 101 8 101 61 0 28 5 38 20 42 14 4 20 14 20 32 0 36 59 155 76 155 9 0 14 11 14 30 0 22 -5 30 -18 30 -13 0 -22 12 -30 39 -7 21 -19 44 -27 51 -8 7 -15 27 -15 44 0 22 -8 39 -25 54 -32 28 -35 28 -35 -7 0 -29 -1 -30 -31 -19 -18 6 -56 8 -91 4 l-59 -6 3 53 3 52 88 3 c73 2 87 0 87 -13 0 -8 5 -15 10 -15 14 0 13 23 -2 38 -13 13 -179 17 -191 5z m-15 -145 c-15 -15 -26 -4 -18 18 5 13 9 15 18 6 9 -9 9 -15 0 -24z m238 11 c0 -11 -4 -17 -10 -14 -5 3 -10 13 -10 21 0 8 5 14 10 14 6 0 10 -9 10 -21z m-34 -24 c130 -76 119 -263 -21 -326 -51 -24 -99 -23 -151 0 -78 36 -118 120 -100 216 8 42 58 103 101 121 50 22 123 17 171 -11z m-201 -343 c0 -18 -20 -15 -23 4 -3 10 1 15 10 12 7 -3 13 -10 13 -16z m235 4 c0 -8 -4 -18 -10 -21 -5 -3 -10 3 -10 14 0 12 5 21 10 21 6 0 10 -6 10 -14z" fill="#ffb566"/>
<path d="M222 463 c-140 -69 -96 -293 61 -310 121 -14 219 110 174 220 -9 20 -21 37 -27 37 -6 0 -4 -13 6 -32 20 -39 14 -110 -13 -147 -45 -61 -147 -78 -206 -35 -39 28 -71 97 -63 137 9 48 41 94 78 113 41 21 111 21 143 0 28 -19 35 -20 35 -6 0 18 -59 40 -107 40 -26 0 -63 -8 -81 -17z" fill="#ffb566"/>
<path d="M248 347 c12 -13 22 -28 22 -34 0 -34 54 -37 65 -4 3 10 22 26 43 36 20 10 32 20 25 22 -6 2 -24 -2 -40 -10 -28 -15 -89 -12 -99 4 -3 5 -12 9 -21 9 -14 0 -13 -4 5 -23z m64 -32 c0 -5 -5 -11 -11 -13 -6 -2 -11 4 -11 13 0 9 5 15 11 13 6 -2 11 -8 11 -13z" fill="#ffb566"/>
</g>
</svg>